{
  "accessors": [
    {
      "bufferView": 2,
      "componentType": 5126,
      "count": 1100,
      "max": [
        0.28146013617515564,
        0.28146013617515564,
        0.9828819036483765
      ],
      "min": [
        -0.28146013617515564,
        -0.28146013617515564,
        -0.2645055055618286
      ],
      "type": "VEC3"
    },
    {
      "bufferView": 2,
      "byteOffset": 13200,
      "componentType": 5126,
      "count": 1100,
      "max": [
        1.0,
        1.0,
        1.0
      ],
      "min": [
        -1.0,
        -1.0,
        -1.0
      ],
      "type": "VEC3"
    },
    {
      "bufferView": 3,
      "componentType": 5126,
      "count": 1100,
      "max": [
        1.0,
        1.0,
        1.0384448614786379e-05,
        1.0
      ],
      "min": [
        -1.0,
        -1.0,
        -1.0,
        1.0
      ],
      "type": "VEC4"
    },
    {
      "bufferView": 1,
      "componentType": 5126,
      "count": 1100,
      "max": [
        1.0,
        0.9847097396850586
      ],
      "min": [
        0.0,
        -1.9319623678626385e-09
      ],
      "type": "VEC2"
    },
    {
      "bufferView": 1,
      "byteOffset": 8800,
      "componentType": 5126,
      "count": 1100,
      "max": [
        1.0,
        0.9847097396850586
      ],
      "min": [
        0.0,
        -1.9319623678626385e-09
      ],
      "type": "VEC2"
    },
    {
      "bufferView": 1,
      "byteOffset": 17600,
      "componentType": 5126,
      "count": 1100,
      "max": [
        1.0,
        0.9847097396850586
      ],
      "min": [
        0.0,
        -1.9319623678626385e-09
      ],
      "type": "VEC2"
    },
    {
      "bufferView": 0,
      "componentType": 5125,
      "count": 2841,
      "type": "SCALAR"
    }
  ],
  "asset": {
    "extras": {
      "author": "SayaSibaaa (https://sketchfab.com/Tangguh2107)",
      "license": "CC-BY-4.0 (http://creativecommons.org/licenses/by/4.0/)",
      "source": "https://sketchfab.com/3d-models/modern-trash-bin-low-poly-ebf9037755224d0dbc265235d7d59a5a",
      "title": "Modern Trash Bin | Low Poly"
    },
    "generator": "Sketchfab-16.74.0",
    "version": "2.0"
  },
  "bufferViews": [
    {
      "buffer": 0,
      "byteLength": 11364,
      "name": "floatBufferViews",
      "target": 34963
    },
    {
      "buffer": 0,
      "byteLength": 26400,
      "byteOffset": 11364,
      "byteStride": 8,
      "name": "floatBufferViews",
      "target": 34962
    },
    {
      "buffer": 0,
      "byteLength": 26400,
      "byteOffset": 37764,
      "byteStride": 12,
      "name": "floatBufferViews",
      "target": 34962
    },
    {
      "buffer": 0,
      "byteLength": 17600,
      "byteOffset": 64164,
      "byteStride": 16,
      "name": "floatBufferViews",
      "target": 34962
    }
  ],
  "buffers": [
    {
      "byteLength": 81764,
      "uri": "scene.bin"
    }
  ],
  "images": [
    {
      "uri": "textures/trashbin_baseColor.png"
    },
    {
      "uri": "textures/trashbin_metallicRoughness.png"
    },
    {
      "uri": "textures/trashbin_normal.png"
    }
  ],
  "materials": [
    {
      "doubleSided": true,
      "name": "trashbin",
      "normalTexture": {
        "index": 2,
        "texCoord": 1
      },
      "pbrMetallicRoughness": {
        "baseColorTexture": {
          "index": 0
        },
        "metallicRoughnessTexture": {
          "index": 1
        }
      }
    }
  ],
  "meshes": [
    {
      "name": "Cube.001_trashbin_0",
      "primitives": [
        {
          "attributes": {
            "NORMAL": 1,
            "POSITION": 0,
            "TANGENT": 2,
            "TEXCOORD_0": 3,
            "TEXCOORD_1": 4,
            "TEXCOORD_2": 5
          },
          "indices": 6,
          "material": 0,
          "mode": 4
        }
      ]
    }
  ],
  "nodes": [
    {
      "children": [
        1
      ],
      "matrix": [
        1.0,
        0.0,
        0.0,
        0.0,
        0.0,
        2.220446049250313e-16,
        -1.0,
        0.0,
        0.0,
        1.0,
        2.220446049250313e-16,
        0.0,
        0.0,
        0.0,
        0.0,
        1.0
      ],
      "name": "Sketchfab_model"
    },
    {
      "children": [
        2
      ],
      "matrix": [
        0.009999999776482582,
        0.0,
        0.0,
        0.0,
        0.0,
        0.0,
        0.009999999776482582,
        0.0,
        0.0,
        -0.009999999776482582,
        0.0,
        0.0,
        0.0,
        0.0,
        0.0,
        1.0
      ],
      "name": "TrashBin.fbx"
    },
    {
      "children": [
        3
      ],
      "name": "RootNode"
    },
    {
      "children": [
        4
      ],
      "matrix": [
        100.0,
        0.0,
        0.0,
        0.0,
        0.0,
        -1.629206793918314e-05,
        -99.99999999999868,
        0.0,
        0.0,
        99.99999999999868,
        -1.629206793918314e-05,
        0.0,
        0.0,
        26.962644577026367,
        0.0,
        1.0
      ],
      "name": "Cube.001"
    },
    {
      "mesh": 0,
      "name": "Cube.001_trashbin_0"
    }
  ],
  "samplers": [
    {
      "magFilter": 9729,
      "minFilter": 9987,
      "wrapS": 10497,
      "wrapT": 10497
    }
  ],
  "scene": 0,
  "scenes": [
    {
      "name": "Sketchfab_Scene",
      "nodes": [
        0
      ]
    }
  ],
  "textures": [
    {
      "sampler": 0,
      "source": 0
    },
    {
      "sampler": 0,
      "source": 1
    },
    {
      "sampler": 0,
      "source": 2
    }
  ]
}
